<svg width="227" height="55" viewBox="0 0 227 55" fill="none" xmlns="http://www.w3.org/2000/svg">
<path d="M2.30827 2.30827H218.692V52.6917H2.30827V2.30827Z" stroke="#262626" stroke-width="2.61654"/>
<path d="M41.4211 40.48C40.2478 40.48 39.1678 40.3733 38.1811 40.16C37.1944 39.9467 36.3811 39.72 35.7411 39.48C35.1011 39.2133 34.7811 39.0667 34.7811 39.04L34.5411 38.56C34.5678 38.4 34.6211 38.0133 34.7011 37.4C34.7811 36.7867 34.8611 35.9467 34.9411 34.88C35.0478 33.8133 35.1011 32.7467 35.1011 31.68L37.5411 31.48C37.5411 33.24 37.6744 34.5733 37.9411 35.48C38.2078 36.36 38.6744 36.9733 39.3411 37.32C40.0344 37.6667 41.0611 37.84 42.4211 37.84C43.9144 37.84 45.1144 37.4933 46.0211 36.8C46.9278 36.1067 47.3811 35.1733 47.3811 34C47.3811 32.9867 46.9411 32.1467 46.0611 31.48C45.2078 30.7867 43.9011 30 42.1411 29.12C42.0611 29.0667 41.8078 28.9333 41.3811 28.72C39.3544 27.7067 37.7678 26.68 36.6211 25.64C35.5011 24.6 34.9411 23.2667 34.9411 21.64C34.9411 20.2 35.3678 18.8933 36.2211 17.72C37.0744 16.5467 38.2478 15.6267 39.7411 14.96C41.2344 14.2933 42.9144 13.96 44.7811 13.96C45.8744 13.96 46.9011 14.04 47.8611 14.2C48.8211 14.36 49.5811 14.52 50.1411 14.68C50.7278 14.84 51.0878 14.9467 51.2211 15L51.3811 15.36C51.3011 15.7333 51.1544 16.5867 50.9411 17.92C50.7278 19.2267 50.5678 20.64 50.4611 22.16L48.3011 22.36L47.9811 22.12C48.0078 22.04 48.0344 21.8267 48.0611 21.48C48.0878 21.1333 48.1011 20.7467 48.1011 20.32C48.1011 19.0133 47.7678 18.1067 47.1011 17.6C46.4611 17.0667 45.3278 16.8 43.7011 16.8C42.3944 16.8 41.3144 17.1333 40.4611 17.8C39.6078 18.44 39.1811 19.2533 39.1811 20.24C39.1811 21.2533 39.6211 22.1067 40.5011 22.8C41.3811 23.4933 42.7278 24.2933 44.5411 25.2C46.1411 26 47.4078 26.6933 48.3411 27.28C49.3011 27.8667 50.1144 28.6 50.7811 29.48C51.4744 30.36 51.8211 31.3867 51.8211 32.56C51.8211 34.1067 51.3811 35.48 50.5011 36.68C49.6478 37.88 48.4344 38.8133 46.8611 39.48C45.2878 40.1467 43.4744 40.48 41.4211 40.48ZM56.0283 38.4C57.0149 38.2133 57.6683 37.9467 57.9883 37.6C58.3083 37.2533 58.4683 36.64 58.4683 35.76L58.5083 23.56C58.5083 22.8933 58.4283 22.4533 58.2683 22.24C58.1083 22 57.7883 21.88 57.3083 21.88L56.1083 21.92L55.9883 21.68L56.1883 19.96C56.6683 19.96 57.1083 19.9733 57.5083 20L60.5483 20.04C61.1616 20.04 61.9616 20.0133 62.9483 19.96C63.9616 19.88 64.6283 19.8267 64.9483 19.8L64.7883 21.72C63.9349 21.8267 63.3616 21.9867 63.0683 22.2C62.8016 22.4133 62.6416 22.8267 62.5883 23.44C62.3216 28.6667 62.1883 32.8533 62.1883 36C62.1883 36.8533 62.2683 37.4267 62.4283 37.72C62.6149 38.0133 62.9749 38.16 63.5083 38.16C63.8816 38.16 64.2016 38.1467 64.4683 38.12C64.7616 38.0933 64.9483 38.0667 65.0283 38.04L65.1483 38.24L64.8683 40.08C64.5216 40.08 63.8683 40.0667 62.9083 40.04C61.9749 40.0133 61.0549 40 60.1483 40C59.4016 40 58.5616 40.04 57.6283 40.12C56.6949 40.2267 56.0816 40.2933 55.7883 40.32L56.0283 38.4ZM79.6408 40.52C77.2408 33.6667 75.4141 28.68 74.1608 25.56H73.9208C73.8408 26.68 73.6808 28.8133 73.4408 31.96C73.2274 35.08 73.1208 36.8 73.1208 37.12C73.1208 37.4667 73.2008 37.72 73.3608 37.88C73.5208 38.04 73.7874 38.12 74.1608 38.12H75.3608L75.4808 38.24L75.1608 40.12C74.8674 40.12 74.3474 40.0933 73.6008 40.04C72.8541 40.0133 72.1341 40 71.4408 40C70.9074 40 70.3074 40.0267 69.6408 40.08C68.9741 40.16 68.5341 40.2133 68.3208 40.24L68.4808 38.32C69.1474 38.24 69.6274 38.04 69.9208 37.72C70.2408 37.3733 70.4408 36.8133 70.5208 36.04C70.7341 34.3867 71.0141 31.96 71.3608 28.76C71.7074 25.5333 71.8808 23.72 71.8808 23.32C71.8808 22.7867 71.6941 22.4133 71.3208 22.2C70.9741 21.96 70.2941 21.8133 69.2808 21.76L69.1208 21.52L69.4008 19.88C69.7208 19.9067 70.2808 19.9467 71.0808 20C71.8808 20.0267 72.6541 20.04 73.4008 20.04C74.0941 20.04 74.7474 20.0267 75.3608 20C75.9741 19.9733 76.3874 19.9467 76.6008 19.92C77.5608 23.0133 78.4808 25.8533 79.3608 28.44C80.2674 31 80.8541 32.6267 81.1208 33.32H81.3608C81.6274 32.6267 82.2141 31 83.1208 28.44C84.0541 25.8533 85.0408 23.04 86.0808 20C86.4008 19.9733 86.7341 19.9733 87.0808 20C87.4274 20 87.7341 20 88.0008 20C88.3741 20.0267 88.8941 20.04 89.5608 20.04C90.2541 20.0133 90.9341 19.9867 91.6008 19.96C92.2674 19.9067 92.7208 19.8667 92.9608 19.84L93.0808 19.96L92.8408 21.68C91.9074 21.76 91.2675 21.92 90.9208 22.16C90.5741 22.4 90.4008 22.8 90.4008 23.36C90.4008 24 90.4941 25.6667 90.6808 28.36C90.8674 31.0533 91.0541 33.3467 91.2408 35.24C91.3741 36.3867 91.5341 37.16 91.7208 37.56C91.9341 37.9333 92.2941 38.12 92.8008 38.12L93.7608 38.08L93.8408 38.2L93.5608 40.08C93.3474 40.08 92.9208 40.0667 92.2808 40.04C91.6674 40.0133 91.0008 40 90.2808 40C89.5074 40 88.6808 40.0267 87.8008 40.08C86.9208 40.1333 86.2808 40.1867 85.8808 40.24L86.1208 38.32C86.7874 38.24 87.2541 38.08 87.5208 37.84C87.8141 37.6 87.9608 37.24 87.9608 36.76C87.9608 36.2533 87.8408 34.5333 87.6008 31.6C87.3874 28.64 87.2408 26.6267 87.1608 25.56H86.9208C85.2141 29.8267 83.4008 34.72 81.4808 40.24L79.6408 40.52ZM101.596 40C100.876 40 100.023 40.04 99.0364 40.12C98.0764 40.2267 97.4497 40.2933 97.1564 40.32L97.3564 38.4C98.3431 38.2133 98.9964 37.96 99.3164 37.64C99.6364 37.2933 99.7964 36.6933 99.7964 35.84L99.8364 23.48C99.8364 22.8667 99.7564 22.4533 99.5964 22.24C99.4631 22 99.1831 21.88 98.7564 21.88L97.6364 21.92L97.4364 21.72L97.7164 19.96C98.0631 19.96 98.6631 19.9733 99.5164 20C100.396 20.0267 101.223 20.04 101.996 20.04C102.823 20.04 103.716 20.0133 104.676 19.96C105.636 19.9067 106.303 19.8667 106.676 19.84C108.89 19.84 110.583 20.2533 111.756 21.08C112.93 21.9067 113.516 23.1067 113.516 24.68C113.516 25.8267 113.156 26.8267 112.436 27.68C111.716 28.5067 110.876 29.1067 109.916 29.48C111.17 29.72 112.276 30.24 113.236 31.04C114.196 31.84 114.676 32.8667 114.676 34.12C114.676 35.32 114.316 36.3867 113.596 37.32C112.903 38.2533 111.916 38.9867 110.636 39.52C109.383 40.0533 107.97 40.32 106.396 40.32C106.05 40.32 105.37 40.2667 104.356 40.16C103.076 40.0533 102.156 40 101.596 40ZM103.716 28.64C104.01 28.6667 104.49 28.7067 105.156 28.76C105.85 28.8133 106.45 28.8533 106.956 28.88C106.956 28.9333 107.183 28.84 107.636 28.6C108.116 28.3333 108.543 27.9467 108.916 27.44C109.29 26.9067 109.476 26.2267 109.476 25.4C109.476 24.3067 109.076 23.4933 108.276 22.96C107.476 22.4267 106.236 22.16 104.556 22.16C104.343 22.16 104.196 22.2 104.116 22.28C104.063 22.36 104.023 22.52 103.996 22.76C103.863 24.2267 103.77 26.1867 103.716 28.64ZM103.516 36C103.516 36.6933 103.756 37.1867 104.236 37.48C104.743 37.7467 105.596 37.88 106.796 37.88C107.943 37.88 108.836 37.6 109.476 37.04C110.116 36.4533 110.436 35.64 110.436 34.6C110.436 33.6933 110.13 32.9467 109.516 32.36C108.903 31.7467 107.996 31.3333 106.796 31.12H103.636L103.516 36ZM127.288 40.36C125.395 40.36 123.742 39.96 122.328 39.16C120.915 38.36 119.822 37.2267 119.048 35.76C118.302 34.2933 117.928 32.5733 117.928 30.6C117.928 28.4667 118.382 26.5733 119.288 24.92C120.222 23.2667 121.502 21.9867 123.128 21.08C124.755 20.1467 126.622 19.68 128.728 19.68C131.635 19.68 133.942 20.5467 135.648 22.28C137.355 24.0133 138.208 26.3733 138.208 29.36C138.208 31.4933 137.742 33.4 136.808 35.08C135.875 36.7333 134.582 38.0267 132.928 38.96C131.275 39.8933 129.395 40.36 127.288 40.36ZM128.168 37.96C129.875 37.96 131.235 37.3333 132.248 36.08C133.262 34.8267 133.768 33.1067 133.768 30.92C133.768 28.2267 133.235 26.1333 132.168 24.64C131.102 23.1467 129.635 22.4 127.768 22.4C126.088 22.4 124.755 23.0267 123.768 24.28C122.808 25.5067 122.328 27.2133 122.328 29.4C122.328 32.0933 122.848 34.2 123.888 35.72C124.928 37.2133 126.355 37.96 128.168 37.96ZM143.662 38.28C144.702 38.2 145.435 38.0667 145.862 37.88C146.315 37.6933 146.608 37.4 146.742 37C146.875 36.5733 146.942 35.8667 146.942 34.88V22.16C145.582 22.2133 144.622 22.32 144.062 22.48C143.528 22.6133 143.128 22.9467 142.862 23.48C142.622 23.9867 142.422 24.9067 142.262 26.24L139.862 26.36C139.915 25.9867 139.995 25.1467 140.102 23.84C140.208 22.5067 140.275 21.2267 140.302 20L140.622 19.68L143.742 20H153.982L157.142 19.68L157.502 20C157.528 21.2533 157.595 22.52 157.702 23.8C157.808 25.0533 157.875 25.8667 157.902 26.24L155.502 26.36C155.315 24.9733 155.102 24.0133 154.862 23.48C154.622 22.9467 154.248 22.6133 153.742 22.48C153.235 22.32 152.342 22.2133 151.062 22.16C150.955 23.52 150.848 25.5733 150.742 28.32C150.662 31.04 150.622 33.5867 150.622 35.96C150.622 36.7333 150.755 37.28 151.022 37.6C151.315 37.92 151.795 38.08 152.462 38.08C152.915 38.08 153.288 38.0667 153.582 38.04C153.902 38.0133 154.102 38 154.182 38L154.342 38.16L154.062 40.12C153.662 40.12 152.915 40.0933 151.822 40.04C150.728 40.0133 149.662 40 148.622 40C147.875 40 146.902 40.0267 145.702 40.08C144.528 40.1333 143.755 40.1733 143.382 40.2L143.662 38.28ZM160.599 38.4C161.585 38.2133 162.239 37.9467 162.559 37.6C162.879 37.2533 163.039 36.64 163.039 35.76L163.079 23.56C163.079 22.8933 162.999 22.4533 162.839 22.24C162.679 22 162.359 21.88 161.879 21.88L160.679 21.92L160.559 21.68L160.759 19.96C161.239 19.96 161.679 19.9733 162.079 20L165.119 20.04C165.732 20.04 166.532 20.0133 167.519 19.96C168.532 19.88 169.199 19.8267 169.519 19.8L169.359 21.72C168.505 21.8267 167.932 21.9867 167.639 22.2C167.372 22.4133 167.212 22.8267 167.159 23.44C166.892 28.6667 166.759 32.8533 166.759 36C166.759 36.8533 166.839 37.4267 166.999 37.72C167.185 38.0133 167.545 38.16 168.079 38.16C168.452 38.16 168.772 38.1467 169.039 38.12C169.332 38.0933 169.519 38.0667 169.599 38.04L169.719 38.24L169.439 40.08C169.092 40.08 168.439 40.0667 167.479 40.04C166.545 40.0133 165.625 40 164.719 40C163.972 40 163.132 40.04 162.199 40.12C161.265 40.2267 160.652 40.2933 160.359 40.32L160.599 38.4ZM177.731 20.04C178.638 20.04 179.598 20.0133 180.611 19.96C181.624 19.88 182.278 19.8267 182.571 19.8L182.691 20.08L182.531 21.68C181.784 21.7333 181.238 21.84 180.891 22C180.571 22.1333 180.411 22.36 180.411 22.68C180.411 22.9467 180.638 23.44 181.091 24.16C181.571 24.88 182.398 26.0667 183.571 27.72L184.811 26.08C185.611 25.0667 186.198 24.28 186.571 23.72C186.971 23.16 187.171 22.76 187.171 22.52C187.171 22.28 187.038 22.1067 186.771 22C186.504 21.8667 186.064 21.7733 185.451 21.72L185.371 21.6L185.571 19.88L186.811 19.92C188.571 20 189.531 20.04 189.691 20.04C190.491 20.04 191.224 20.0267 191.891 20C192.558 19.9733 193.011 19.9467 193.251 19.92L193.371 20.16L193.171 21.84C192.211 22.1333 191.451 22.4933 190.891 22.92C190.331 23.3467 189.624 24.0933 188.771 25.16L185.091 29.84L189.251 35.48C189.918 36.3333 190.584 36.9733 191.251 37.4C191.918 37.8 192.718 38.0267 193.651 38.08L193.731 38.2L193.491 40.08C193.198 40.08 192.624 40.0667 191.771 40.04C190.944 40.0133 190.104 40 189.251 40C188.531 40 187.518 40.0267 186.211 40.08C184.904 40.1333 184.038 40.1733 183.611 40.2L183.491 40L183.611 38.28C184.331 38.2267 184.851 38.1333 185.171 38C185.491 37.8667 185.651 37.6533 185.651 37.36C185.651 37.2 185.598 37.0267 185.491 36.84C185.384 36.6267 185.251 36.4 185.091 36.16L182.011 31.92L179.571 35.04C179.091 35.6267 178.758 36.0933 178.571 36.44C178.384 36.76 178.291 37.04 178.291 37.28C178.291 37.5733 178.424 37.8 178.691 37.96C178.958 38.0933 179.384 38.1733 179.971 38.2L180.131 38.4L179.891 40.2C179.571 40.1733 178.998 40.1333 178.171 40.08C177.371 40.0267 176.598 40 175.851 40C175.104 40 174.371 40.0133 173.651 40.04C172.958 40.0667 172.478 40.0933 172.211 40.12L172.051 39.84L172.251 38.12C173.024 37.88 173.798 37.4133 174.571 36.72C175.371 36 176.251 35.0667 177.211 33.92L180.611 29.76L176.811 24.52C176.224 23.6933 175.598 23.0933 174.931 22.72C174.291 22.32 173.491 22.0533 172.531 21.92L172.411 21.76L172.651 19.96C172.971 19.96 173.611 19.9733 174.571 20C175.531 20.0267 176.584 20.04 177.731 20.04Z" fill="black"/>
</svg>
