<svg width="157" height="159" viewBox="0 0 157 159" fill="none" xmlns="http://www.w3.org/2000/svg">
<path fill-rule="evenodd" clip-rule="evenodd" d="M104.116 110.79L134.612 90.4449L151.334 82.559C151.334 82.559 160.187 83.8671 155.76 92.5008C155.76 92.5008 144.818 98.0962 141.039 100.147L112.227 119.021C115.771 122.395 120.897 126.639 126.44 130.539C132.023 134.467 135.774 135.796 140.439 135.064C140.439 135.064 145.79 134.189 148.296 131.775C148.296 131.775 155.367 133.079 153.75 140.024C153.75 140.024 149.198 146.266 140.704 146.266C140.704 146.266 127.021 145.478 120.857 140.359C120.857 140.359 109.384 132.419 102.669 125.035C102.667 125.034 102.666 125.032 102.664 125.03L102.097 125.386L45.1249 157.166C45.1249 157.166 40.3892 161.23 37.3687 156.328C34.3481 151.426 39.076 147.166 39.076 147.166L94.2582 116.725L94.5925 116.524C89.2609 111.055 84.2717 106.137 84.2717 106.137C84.2717 106.137 70.2313 114.585 60.7272 116.446C60.7272 116.446 30.0857 124.109 9.74663 115.703C9.74663 115.703 -18.7777 96.0127 21.7677 78.2944C21.7677 78.2944 42.038 74.151 62.9585 81.604L83.9988 92.4859L92.0672 85.3287C92.0672 85.3287 94.5689 81.0947 91.9185 78.2944C91.9185 78.2944 78.1501 68.6719 61.0779 66.0862C61.0779 66.0862 42.1733 61.351 43.9682 53.5788C43.9682 53.5788 44.9723 48.5835 46.3266 46.3623C48.8098 42.2895 51.29 40.2846 53.4429 38.5443C54.1217 37.9956 54.7679 37.4732 55.3715 36.9206C59.2117 33.4045 59.9561 32.9091 60.9448 32.2511C61.4279 31.9296 61.9692 31.5694 62.9585 30.799C79.2441 18.6963 97.4182 10.6254 107.941 5.95239C111.252 4.48198 113.806 3.34799 115.304 2.53067C115.304 2.53067 132.509 -2.72302 136.388 1.90897C136.388 1.90897 141.591 12.915 130.663 22.1905C130.663 22.1905 106.952 46.4625 104.618 47.6618C104.618 47.6618 97.9616 53.3953 94.788 46.5682C94.788 46.5682 93.1932 43.2628 98.1235 38.8854C103.054 34.508 122.006 15.7029 122.006 15.7029L125.388 11.7497C125.388 11.7497 110.921 15.2995 95.6905 24.291C95.6905 24.291 63.9245 41.2731 55.763 51.7254C55.763 51.7254 86.1082 57.6149 99.7302 71.1016C99.7302 71.1016 111.128 83.3973 93.351 99.587C93.351 99.587 98.9243 105.424 104.116 110.79ZM11.3893 101.439C11.3893 101.439 12.9519 89.4456 31.5562 86.8132C50.1606 84.1808 65.4013 95.178 71.9116 97.998C66.802 101.704 51.4327 108.903 32.639 108.703C13.8453 108.503 11.3893 101.439 11.3893 101.439Z" fill="#FF6666"/>
</svg>
