<svg width="149" height="38" fill="none" xmlns="http://www.w3.org/2000/svg">
  <path d="M147.691 1.308H1.308v35.384h146.383V1.308z" stroke="#262626" stroke-width="2.617"/>
  <path d="M23.545 28.336a10.74 10.74 0 01-2.268-.224c-.69-.15-1.26-.308-1.708-.476-.448-.187-.672-.29-.672-.308l-.168-.336c.018-.112.056-.383.112-.812.056-.43.112-1.017.168-1.764.074-.747.112-1.493.112-2.24l1.708-.14c0 1.232.093 2.165.28 2.8.186.616.513 1.045.98 1.288.485.243 1.204.364 2.156.364 1.045 0 1.885-.243 2.52-.728.634-.485.952-1.139.952-1.96 0-.71-.308-1.297-.924-1.764-.598-.485-1.512-1.036-2.744-1.652a7.722 7.722 0 00-.532-.28c-1.419-.71-2.53-1.428-3.332-2.156-.784-.728-1.176-1.661-1.176-2.8 0-1.008.298-1.923.896-2.744.597-.821 1.418-1.465 2.464-1.932 1.045-.467 2.221-.7 3.528-.7.765 0 1.484.056 2.156.168a15.14 15.14 0 012.352.56l.112.252c-.056.261-.159.859-.308 1.792-.15.915-.262 1.904-.336 2.968l-1.512.14-.224-.168c.018-.056.037-.205.056-.448a10.7 10.7 0 00.028-.812c0-.915-.234-1.55-.7-1.904-.448-.373-1.242-.56-2.38-.56-.915 0-1.67.233-2.268.7-.598.448-.896 1.017-.896 1.708 0 .71.308 1.307.924 1.792.616.485 1.558 1.045 2.828 1.68 1.12.56 2.006 1.045 2.66 1.456.672.41 1.241.924 1.708 1.54.485.616.728 1.335.728 2.156 0 1.083-.308 2.044-.924 2.884-.598.84-1.447 1.493-2.548 1.96-1.102.467-2.37.7-3.808.7zM33.77 26.88c.69-.13 1.148-.317 1.372-.56.224-.243.336-.672.336-1.288l.028-8.54c0-.467-.056-.775-.168-.924-.112-.168-.336-.252-.672-.252l-.84.028-.084-.168.14-1.204c.336 0 .644.01.924.028l2.128.028c.43 0 .99-.019 1.68-.056.71-.056 1.176-.093 1.4-.112l-.112 1.344c-.598.075-.999.187-1.204.336-.187.15-.299.439-.336.868-.187 3.659-.28 6.59-.28 8.792 0 .597.056.999.168 1.204.13.205.383.308.756.308.261 0 .485-.01.672-.028.205-.019.336-.037.392-.056l.084.14-.196 1.288c-.243 0-.7-.01-1.372-.028A67.53 67.53 0 0036.654 28c-.523 0-1.11.028-1.764.084-.654.075-1.083.121-1.288.14l.168-1.344zm16.528 1.484c-1.68-4.797-2.958-8.288-3.836-10.472h-.168c-.055.784-.167 2.277-.335 4.48-.15 2.184-.225 3.388-.225 3.612 0 .243.056.42.169.532.111.112.298.168.56.168h.84l.084.084-.224 1.316c-.206 0-.57-.019-1.092-.056A42.32 42.32 0 0044.559 28c-.374 0-.794.019-1.26.056l-.925.112.112-1.344c.467-.056.803-.196 1.009-.42.224-.243.364-.635.42-1.176.149-1.157.345-2.856.587-5.096.243-2.259.364-3.528.364-3.808 0-.373-.13-.635-.392-.784-.242-.168-.718-.27-1.427-.308l-.112-.168.195-1.148c.224.019.616.047 1.176.084.56.019 1.102.028 1.625.028.485 0 .942-.01 1.372-.028.429-.019.718-.037.867-.056a233.508 233.508 0 001.932 5.964c.635 1.792 1.046 2.93 1.233 3.416h.167c.187-.485.598-1.624 1.232-3.416.654-1.81 1.344-3.78 2.072-5.908.225-.019.458-.019.7 0h.645c.26.019.625.028 1.091.028l1.428-.056c.467-.037.785-.065.953-.084l.084.084-.169 1.204c-.653.056-1.1.168-1.343.336-.243.168-.364.448-.364.84 0 .448.065 1.615.195 3.5.131 1.885.262 3.49.392 4.816.094.803.206 1.344.337 1.624.149.261.4.392.755.392l.672-.028.056.084-.196 1.316c-.149 0-.448-.01-.895-.028-.43-.019-.896-.028-1.4-.028-.542 0-1.12.019-1.736.056a20.98 20.98 0 00-1.345.112l.169-1.344c.466-.056.793-.168.98-.336.205-.168.308-.42.308-.756 0-.355-.084-1.559-.252-3.612-.15-2.072-.253-3.481-.309-4.228h-.167c-1.195 2.987-2.465 6.412-3.809 10.276l-1.288.196zM65.668 28c-.505 0-1.102.028-1.793.084-.672.075-1.11.121-1.316.14l.14-1.344c.691-.13 1.148-.308 1.373-.532.224-.243.335-.663.335-1.26l.029-8.652c0-.43-.057-.719-.169-.868-.093-.168-.289-.252-.587-.252l-.785.028-.14-.14.197-1.232c.242 0 .662.01 1.26.028.615.019 1.194.028 1.736.028.578 0 1.204-.019 1.876-.056.672-.037 1.138-.065 1.4-.084 1.549 0 2.734.29 3.555.868.822.579 1.233 1.419 1.233 2.52 0 .803-.252 1.503-.757 2.1a4.467 4.467 0 01-1.763 1.26 5.054 5.054 0 012.323 1.092c.672.56 1.008 1.279 1.008 2.156 0 .84-.251 1.587-.755 2.24-.486.653-1.177 1.167-2.072 1.54-.878.373-1.867.56-2.968.56-.243 0-.72-.037-1.428-.112-.896-.075-1.54-.112-1.932-.112zm1.483-7.952c.206.019.542.047 1.008.084.486.037.906.065 1.26.084 0 .037.16-.028.477-.196a2.82 2.82 0 00.895-.812c.262-.373.392-.85.392-1.428 0-.765-.28-1.335-.84-1.708-.56-.373-1.428-.56-2.603-.56-.15 0-.252.028-.308.084-.038.056-.066.168-.085.336-.093 1.027-.158 2.399-.195 4.116zm-.14 5.152c0 .485.169.83.505 1.036.354.187.951.28 1.791.28.803 0 1.428-.196 1.876-.588.448-.41.672-.98.672-1.708 0-.635-.214-1.157-.644-1.568-.429-.43-1.064-.719-1.903-.868h-2.213l-.084 3.416zm16.64 3.052c-1.325 0-2.482-.28-3.471-.84a5.76 5.76 0 01-2.296-2.38c-.523-1.027-.784-2.23-.784-3.612 0-1.493.317-2.819.952-3.976a6.892 6.892 0 012.688-2.688c1.139-.653 2.445-.98 3.92-.98 2.035 0 3.65.607 4.844 1.82 1.194 1.213 1.792 2.865 1.792 4.956 0 1.493-.327 2.828-.98 4.004a7.033 7.033 0 01-2.716 2.716c-1.157.653-2.474.98-3.948.98zm.617-1.68c1.195 0 2.147-.439 2.856-1.316.71-.877 1.064-2.081 1.064-3.612 0-1.885-.374-3.35-1.12-4.396-.747-1.045-1.773-1.568-3.08-1.568-1.176 0-2.11.439-2.8 1.316-.672.859-1.008 2.053-1.008 3.584 0 1.885.364 3.36 1.092 4.424.728 1.045 1.727 1.568 2.996 1.568zm10.845.224c.728-.056 1.242-.15 1.54-.28.317-.13.523-.336.616-.616.093-.299.14-.793.14-1.484v-8.904c-.952.037-1.624.112-2.016.224-.373.093-.653.327-.84.7-.168.355-.308.999-.42 1.932l-1.68.084c.037-.261.093-.85.168-1.764.075-.933.122-1.83.14-2.688l.224-.224L95.17 14h7.168l2.212-.224.252.224c.019.877.066 1.764.14 2.66.075.877.122 1.447.14 1.708l-1.68.084c-.13-.97-.28-1.643-.448-2.016-.168-.373-.429-.607-.784-.7-.354-.112-.98-.187-1.876-.224-.074.952-.149 2.39-.224 4.312a182.512 182.512 0 00-.084 5.348c0 .541.094.924.28 1.148.206.224.542.336 1.008.336.318 0 .579-.01.784-.028a7.18 7.18 0 01.42-.028l.112.112-.196 1.372c-.28 0-.802-.019-1.568-.056a91.703 91.703 0 00-2.24-.028c-.522 0-1.204.019-2.044.056a79.47 79.47 0 00-1.624.084l.196-1.344zm11.856.084c.691-.13 1.148-.317 1.372-.56.224-.243.336-.672.336-1.288l.028-8.54c0-.467-.056-.775-.168-.924-.112-.168-.336-.252-.672-.252l-.84.028-.084-.168.14-1.204c.336 0 .644.01.924.028l2.128.028c.429 0 .989-.019 1.68-.056.709-.056 1.176-.093 1.4-.112l-.112 1.344c-.597.075-.999.187-1.204.336-.187.15-.299.439-.336.868-.187 3.659-.28 6.59-.28 8.792 0 .597.056.999.168 1.204.131.205.383.308.756.308.261 0 .485-.01.672-.028.205-.019.336-.037.392-.056l.084.14-.196 1.288c-.243 0-.7-.01-1.372-.028a67.498 67.498 0 00-1.932-.028c-.523 0-1.111.028-1.764.084-.653.075-1.083.121-1.288.14l.168-1.344zm11.993-12.852c.634 0 1.306-.019 2.016-.056.709-.056 1.166-.093 1.372-.112l.084.196-.112 1.12c-.523.037-.906.112-1.148.224-.224.093-.336.252-.336.476 0 .187.158.532.476 1.036.336.504.914 1.335 1.736 2.492l.868-1.148c.56-.71.97-1.26 1.232-1.652.28-.392.42-.672.42-.84 0-.168-.094-.29-.28-.364-.187-.093-.495-.159-.924-.196l-.056-.084.14-1.204.868.028c1.232.056 1.904.084 2.016.084.56 0 1.073-.01 1.54-.028.466-.019.784-.037.952-.056l.084.168-.14 1.176c-.672.205-1.204.457-1.596.756-.392.299-.887.821-1.484 1.568l-2.576 3.276 2.912 3.948c.466.597.933 1.045 1.4 1.344.466.28 1.026.439 1.68.476l.056.084-.168 1.316c-.206 0-.607-.01-1.204-.028a54.653 54.653 0 00-1.764-.028c-.504 0-1.214.019-2.128.056-.915.037-1.522.065-1.82.084l-.084-.14.084-1.204c.504-.037.868-.103 1.092-.196.224-.093.336-.243.336-.448a.75.75 0 00-.112-.364 4.53 4.53 0 00-.28-.476l-2.156-2.968-1.708 2.184c-.336.41-.57.737-.7.98-.131.224-.196.42-.196.588 0 .205.093.364.28.476.186.093.485.15.896.168l.112.14-.168 1.26a75.952 75.952 0 00-1.204-.084 24.47 24.47 0 00-1.624-.056c-.523 0-1.036.01-1.54.028-.486.019-.822.037-1.008.056l-.112-.196.14-1.204c.541-.168 1.082-.495 1.624-.98.56-.504 1.176-1.157 1.848-1.96l2.38-2.912-2.66-3.668c-.411-.579-.85-.999-1.316-1.26-.448-.28-1.008-.467-1.68-.56l-.084-.112.168-1.26c.224 0 .672.01 1.344.028a79.98 79.98 0 002.212.028z" fill="#000"/>
</svg>