<svg width="876" height="164" viewBox="0 0 876 164" fill="none" xmlns="http://www.w3.org/2000/svg">
<g id="Simbotix Logo" clip-path="url(#clip0)">
<g id="Element / Logo / Logo White">
<g id="Group 7.1">
<path id="Path Copy" fill-rule="evenodd" clip-rule="evenodd" d="M124.116 113.79L154.612 93.4449L171.334 85.559C171.334 85.559 180.187 86.8671 175.76 95.5008C175.76 95.5008 164.818 101.096 161.039 103.147L132.227 122.021C135.771 125.395 140.897 129.639 146.44 133.539C152.023 137.467 155.774 138.796 160.439 138.064C160.439 138.064 165.79 137.189 168.296 134.775C168.296 134.775 175.367 136.079 173.75 143.024C173.75 143.024 169.198 149.266 160.704 149.266C160.704 149.266 147.021 148.478 140.857 143.359C140.857 143.359 129.384 135.419 122.669 128.035C122.667 128.034 122.666 128.032 122.664 128.03L122.097 128.386L65.1249 160.166C65.1249 160.166 60.3892 164.23 57.3687 159.328C54.3481 154.426 59.076 150.166 59.076 150.166L114.258 119.725L114.592 119.524C109.261 114.055 104.272 109.137 104.272 109.137C104.272 109.137 90.2313 117.585 80.7272 119.446C80.7272 119.446 50.0857 127.109 29.7466 118.703C29.7466 118.703 1.22226 99.0127 41.7677 81.2944C41.7677 81.2944 62.038 77.151 82.9585 84.604L103.999 95.4859L112.067 88.3287C112.067 88.3287 114.569 84.0947 111.919 81.2944C111.919 81.2944 98.1501 71.6719 81.0779 69.0862C81.0779 69.0862 62.1733 64.351 63.9682 56.5788C63.9682 56.5788 64.9723 51.5835 66.3266 49.3623C68.8098 45.2895 71.29 43.2846 73.4429 41.5443C74.1217 40.9956 74.7679 40.4732 75.3715 39.9206C79.2117 36.4045 79.9561 35.9091 80.9448 35.2511C81.4279 34.9296 81.9692 34.5694 82.9585 33.799C99.2441 21.6963 117.418 13.6254 127.941 8.95239C131.252 7.48198 133.806 6.34799 135.304 5.53067C135.304 5.53067 152.509 0.276978 156.388 4.90897C156.388 4.90897 161.591 15.915 150.663 25.1905C150.663 25.1905 126.952 49.4625 124.618 50.6618C124.618 50.6618 117.962 56.3953 114.788 49.5682C114.788 49.5682 113.193 46.2628 118.123 41.8854C123.054 37.508 142.006 18.7029 142.006 18.7029L145.388 14.7497C145.388 14.7497 130.921 18.2995 115.691 27.291C115.691 27.291 83.9245 44.2731 75.763 54.7254C75.763 54.7254 106.108 60.6149 119.73 74.1016C119.73 74.1016 131.128 86.3973 113.351 102.587C113.351 102.587 118.924 108.424 124.116 113.79ZM31.3893 104.439C31.3893 104.439 32.9519 92.4456 51.5562 89.8132C70.1606 87.1808 85.4013 98.178 91.9116 100.998C86.802 104.704 71.4327 111.903 52.639 111.703C33.8453 111.503 31.3893 104.439 31.3893 104.439Z" fill="#FF6666"/>
</g>
</g>
<path id="Simbotix" d="M257.68 131.728C253.456 131.728 249.568 131.344 246.016 130.576C242.464 129.808 239.536 128.992 237.232 128.128C234.928 127.168 233.776 126.64 233.776 126.544L232.912 124.816C233.008 124.24 233.2 122.848 233.488 120.64C233.776 118.432 234.064 115.408 234.352 111.568C234.736 107.728 234.928 103.888 234.928 100.048L243.712 99.328C243.712 105.664 244.192 110.464 245.152 113.728C246.112 116.896 247.792 119.104 250.192 120.352C252.688 121.6 256.384 122.224 261.28 122.224C266.656 122.224 270.976 120.976 274.24 118.48C277.504 115.984 279.136 112.624 279.136 108.4C279.136 104.752 277.552 101.728 274.384 99.328C271.312 96.832 266.608 94 260.272 90.832C259.984 90.64 259.072 90.16 257.536 89.392C250.24 85.744 244.528 82.048 240.4 78.304C236.368 74.56 234.352 69.76 234.352 63.904C234.352 58.72 235.888 54.016 238.96 49.792C242.032 45.568 246.256 42.256 251.632 39.856C257.008 37.456 263.056 36.256 269.776 36.256C273.712 36.256 277.408 36.544 280.864 37.12C284.32 37.696 287.056 38.272 289.072 38.848C291.184 39.424 292.48 39.808 292.96 40L293.536 41.296C293.248 42.64 292.72 45.712 291.952 50.512C291.184 55.216 290.608 60.304 290.224 65.776L282.448 66.496L281.296 65.632C281.392 65.344 281.488 64.576 281.584 63.328C281.68 62.08 281.728 60.688 281.728 59.152C281.728 54.448 280.528 51.184 278.128 49.36C275.824 47.44 271.744 46.48 265.888 46.48C261.184 46.48 257.296 47.68 254.224 50.08C251.152 52.384 249.616 55.312 249.616 58.864C249.616 62.512 251.2 65.584 254.368 68.08C257.536 70.576 262.384 73.456 268.912 76.72C274.672 79.6 279.232 82.096 282.592 84.208C286.048 86.32 288.976 88.96 291.376 92.128C293.872 95.296 295.12 98.992 295.12 103.216C295.12 108.784 293.536 113.728 290.368 118.048C287.296 122.368 282.928 125.728 277.264 128.128C271.6 130.528 265.072 131.728 257.68 131.728ZM310.266 124.24C313.818 123.568 316.17 122.608 317.322 121.36C318.474 120.112 319.05 117.904 319.05 114.736L319.194 70.816C319.194 68.416 318.906 66.832 318.33 66.064C317.754 65.2 316.602 64.768 314.874 64.768L310.554 64.912L310.122 64.048L310.842 57.856C312.57 57.856 314.154 57.904 315.594 58L326.538 58.144C328.746 58.144 331.626 58.048 335.178 57.856C338.826 57.568 341.226 57.376 342.378 57.28L341.802 64.192C338.73 64.576 336.666 65.152 335.61 65.92C334.65 66.688 334.074 68.176 333.882 70.384C332.922 89.2 332.442 104.272 332.442 115.6C332.442 118.672 332.73 120.736 333.306 121.792C333.978 122.848 335.274 123.376 337.194 123.376C338.538 123.376 339.69 123.328 340.65 123.232C341.706 123.136 342.378 123.04 342.666 122.944L343.098 123.664L342.09 130.288C340.842 130.288 338.49 130.24 335.034 130.144C331.674 130.048 328.362 130 325.098 130C322.41 130 319.386 130.144 316.026 130.432C312.666 130.816 310.458 131.056 309.402 131.152L310.266 124.24ZM395.271 131.872C386.631 107.2 380.055 89.248 375.543 78.016H374.679C374.391 82.048 373.815 89.728 372.951 101.056C372.183 112.288 371.799 118.48 371.799 119.632C371.799 120.88 372.087 121.792 372.663 122.368C373.239 122.944 374.199 123.232 375.543 123.232H379.863L380.295 123.664L379.143 130.432C378.087 130.432 376.215 130.336 373.527 130.144C370.839 130.048 368.247 130 365.751 130C363.831 130 361.671 130.096 359.271 130.288C356.871 130.576 355.287 130.768 354.519 130.864L355.095 123.952C357.495 123.664 359.223 122.944 360.279 121.792C361.431 120.544 362.151 118.528 362.439 115.744C363.207 109.792 364.215 101.056 365.463 89.536C366.711 77.92 367.335 71.392 367.335 69.952C367.335 68.032 366.663 66.688 365.319 65.92C364.071 65.056 361.623 64.528 357.975 64.336L357.399 63.472L358.407 57.568C359.559 57.664 361.575 57.808 364.455 58C367.335 58.096 370.119 58.144 372.807 58.144C375.303 58.144 377.655 58.096 379.863 58C382.071 57.904 383.559 57.808 384.327 57.712C387.783 68.848 391.095 79.072 394.263 88.384C397.527 97.6 399.639 103.456 400.599 105.952H401.463C402.423 103.456 404.535 97.6 407.799 88.384C411.159 79.072 414.711 68.944 418.455 58C419.607 57.904 420.807 57.904 422.055 58C423.303 58 424.407 58 425.367 58C426.711 58.096 428.583 58.144 430.983 58.144C433.479 58.048 435.927 57.952 438.327 57.856C440.727 57.664 442.359 57.52 443.223 57.424L443.655 57.856L442.791 64.048C439.431 64.336 437.127 64.912 435.879 65.776C434.631 66.64 434.007 68.08 434.007 70.096C434.007 72.4 434.343 78.4 435.015 88.096C435.687 97.792 436.359 106.048 437.031 112.864C437.511 116.992 438.087 119.776 438.759 121.216C439.527 122.56 440.823 123.232 442.647 123.232L446.103 123.088L446.391 123.52L445.383 130.288C444.615 130.288 443.079 130.24 440.775 130.144C438.567 130.048 436.167 130 433.575 130C430.791 130 427.815 130.096 424.647 130.288C421.479 130.48 419.175 130.672 417.735 130.864L418.599 123.952C420.999 123.664 422.679 123.088 423.639 122.224C424.695 121.36 425.223 120.064 425.223 118.336C425.223 116.512 424.791 110.32 423.927 99.76C423.159 89.104 422.631 81.856 422.343 78.016H421.479C415.335 93.376 408.807 110.992 401.895 130.864L395.271 131.872ZM474.311 130C471.719 130 468.647 130.144 465.095 130.432C461.639 130.816 459.383 131.056 458.327 131.152L459.047 124.24C462.599 123.568 464.951 122.656 466.103 121.504C467.255 120.256 467.831 118.096 467.831 115.024L467.975 70.528C467.975 68.32 467.687 66.832 467.111 66.064C466.631 65.2 465.623 64.768 464.087 64.768L460.055 64.912L459.335 64.192L460.343 57.856C461.591 57.856 463.751 57.904 466.823 58C469.991 58.096 472.967 58.144 475.751 58.144C478.727 58.144 481.943 58.048 485.399 57.856C488.855 57.664 491.255 57.52 492.599 57.424C500.567 57.424 506.663 58.912 510.887 61.888C515.111 64.864 517.223 69.184 517.223 74.848C517.223 78.976 515.927 82.576 513.335 85.648C510.743 88.624 507.719 90.784 504.263 92.128C508.775 92.992 512.759 94.864 516.215 97.744C519.671 100.624 521.399 104.32 521.399 108.832C521.399 113.152 520.103 116.992 517.511 120.352C515.015 123.712 511.463 126.352 506.855 128.272C502.343 130.192 497.255 131.152 491.591 131.152C490.343 131.152 487.895 130.96 484.247 130.576C479.639 130.192 476.327 130 474.311 130ZM481.943 89.104C482.999 89.2 484.727 89.344 487.127 89.536C489.623 89.728 491.783 89.872 493.607 89.968C493.607 90.16 494.423 89.824 496.055 88.96C497.783 88 499.319 86.608 500.663 84.784C502.007 82.864 502.679 80.416 502.679 77.44C502.679 73.504 501.239 70.576 498.359 68.656C495.479 66.736 491.015 65.776 484.967 65.776C484.199 65.776 483.671 65.92 483.383 66.208C483.191 66.496 483.047 67.072 482.951 67.936C482.471 73.216 482.135 80.272 481.943 89.104ZM481.223 115.6C481.223 118.096 482.087 119.872 483.815 120.928C485.639 121.888 488.711 122.368 493.031 122.368C497.159 122.368 500.375 121.36 502.679 119.344C504.983 117.232 506.135 114.304 506.135 110.56C506.135 107.296 505.031 104.608 502.823 102.496C500.615 100.288 497.351 98.8 493.031 98.032H481.655L481.223 115.6ZM566.802 131.296C559.986 131.296 554.034 129.856 548.946 126.976C543.858 124.096 539.922 120.016 537.138 114.736C534.45 109.456 533.106 103.264 533.106 96.16C533.106 88.48 534.738 81.664 538.002 75.712C541.362 69.76 545.97 65.152 551.826 61.888C557.682 58.528 564.402 56.848 571.986 56.848C582.45 56.848 590.754 59.968 596.898 66.208C603.042 72.448 606.114 80.944 606.114 91.696C606.114 99.376 604.434 106.24 601.074 112.288C597.714 118.24 593.058 122.896 587.106 126.256C581.154 129.616 574.386 131.296 566.802 131.296ZM569.97 122.656C576.114 122.656 581.01 120.4 584.658 115.888C588.306 111.376 590.13 105.184 590.13 97.312C590.13 87.616 588.21 80.08 584.37 74.704C580.53 69.328 575.25 66.64 568.53 66.64C562.482 66.64 557.682 68.896 554.13 73.408C550.674 77.824 548.946 83.968 548.946 91.84C548.946 101.536 550.818 109.12 554.562 114.592C558.306 119.968 563.442 122.656 569.97 122.656ZM625.746 123.808C629.49 123.52 632.13 123.04 633.666 122.368C635.298 121.696 636.354 120.64 636.834 119.2C637.314 117.664 637.554 115.12 637.554 111.568V65.776C632.658 65.968 629.202 66.352 627.186 66.928C625.266 67.408 623.826 68.608 622.866 70.528C622.002 72.352 621.282 75.664 620.706 80.464L612.066 80.896C612.258 79.552 612.546 76.528 612.93 71.824C613.314 67.024 613.554 62.416 613.65 58L614.802 56.848L626.034 58H662.898L674.274 56.848L675.57 58C675.666 62.512 675.906 67.072 676.29 71.68C676.674 76.192 676.914 79.12 677.01 80.464L668.37 80.896C667.698 75.904 666.93 72.448 666.066 70.528C665.202 68.608 663.858 67.408 662.034 66.928C660.21 66.352 656.994 65.968 652.386 65.776C652.002 70.672 651.618 78.064 651.234 87.952C650.946 97.744 650.802 106.912 650.802 115.456C650.802 118.24 651.282 120.208 652.242 121.36C653.298 122.512 655.026 123.088 657.426 123.088C659.058 123.088 660.402 123.04 661.458 122.944C662.61 122.848 663.33 122.8 663.618 122.8L664.194 123.376L663.186 130.432C661.746 130.432 659.058 130.336 655.122 130.144C651.186 130.048 647.346 130 643.602 130C640.914 130 637.41 130.096 633.09 130.288C628.866 130.48 626.082 130.624 624.738 130.72L625.746 123.808ZM686.719 124.24C690.271 123.568 692.623 122.608 693.775 121.36C694.927 120.112 695.503 117.904 695.503 114.736L695.647 70.816C695.647 68.416 695.359 66.832 694.783 66.064C694.207 65.2 693.055 64.768 691.327 64.768L687.007 64.912L686.575 64.048L687.295 57.856C689.023 57.856 690.607 57.904 692.047 58L702.991 58.144C705.199 58.144 708.079 58.048 711.631 57.856C715.279 57.568 717.679 57.376 718.831 57.28L718.255 64.192C715.183 64.576 713.119 65.152 712.063 65.92C711.103 66.688 710.527 68.176 710.335 70.384C709.375 89.2 708.895 104.272 708.895 115.6C708.895 118.672 709.183 120.736 709.759 121.792C710.431 122.848 711.727 123.376 713.647 123.376C714.991 123.376 716.143 123.328 717.103 123.232C718.159 123.136 718.831 123.04 719.119 122.944L719.551 123.664L718.543 130.288C717.295 130.288 714.943 130.24 711.487 130.144C708.127 130.048 704.815 130 701.551 130C698.863 130 695.839 130.144 692.479 130.432C689.119 130.816 686.911 131.056 685.855 131.152L686.719 124.24ZM748.396 58.144C751.66 58.144 755.116 58.048 758.764 57.856C762.412 57.568 764.764 57.376 765.82 57.28L766.252 58.288L765.676 64.048C762.988 64.24 761.02 64.624 759.772 65.2C758.62 65.68 758.044 66.496 758.044 67.648C758.044 68.608 758.86 70.384 760.492 72.976C762.22 75.568 765.196 79.84 769.42 85.792L773.884 79.888C776.764 76.24 778.876 73.408 780.22 71.392C781.66 69.376 782.38 67.936 782.38 67.072C782.38 66.208 781.9 65.584 780.94 65.2C779.98 64.72 778.396 64.384 776.188 64.192L775.9 63.76L776.62 57.568L781.084 57.712C787.42 58 790.876 58.144 791.452 58.144C794.332 58.144 796.972 58.096 799.372 58C801.772 57.904 803.404 57.808 804.268 57.712L804.7 58.576L803.98 64.624C800.524 65.68 797.788 66.976 795.772 68.512C793.756 70.048 791.212 72.736 788.14 76.576L774.892 93.424L789.868 113.728C792.268 116.8 794.668 119.104 797.068 120.64C799.468 122.08 802.348 122.896 805.708 123.088L805.996 123.52L805.132 130.288C804.076 130.288 802.012 130.24 798.94 130.144C795.964 130.048 792.94 130 789.868 130C787.276 130 783.628 130.096 778.924 130.288C774.22 130.48 771.1 130.624 769.564 130.72L769.132 130L769.564 123.808C772.156 123.616 774.028 123.28 775.18 122.8C776.332 122.32 776.908 121.552 776.908 120.496C776.908 119.92 776.716 119.296 776.332 118.624C775.948 117.856 775.468 117.04 774.892 116.176L763.804 100.912L755.02 112.144C753.292 114.256 752.092 115.936 751.42 117.184C750.748 118.336 750.412 119.344 750.412 120.208C750.412 121.264 750.892 122.08 751.852 122.656C752.812 123.136 754.348 123.424 756.46 123.52L757.036 124.24L756.172 130.72C755.02 130.624 752.956 130.48 749.98 130.288C747.1 130.096 744.316 130 741.628 130C738.94 130 736.3 130.048 733.708 130.144C731.212 130.24 729.484 130.336 728.524 130.432L727.948 129.424L728.668 123.232C731.452 122.368 734.236 120.688 737.02 118.192C739.9 115.6 743.068 112.24 746.524 108.112L758.764 93.136L745.084 74.272C742.972 71.296 740.716 69.136 738.316 67.792C736.012 66.352 733.132 65.392 729.676 64.912L729.244 64.336L730.108 57.856C731.26 57.856 733.564 57.904 737.02 58C740.476 58.096 744.268 58.144 748.396 58.144Z" fill="black"/>
</g>
<defs>
<clipPath id="clip0">
<rect width="876" height="164" fill="white"/>
</clipPath>
</defs>
</svg>
